<?xml version="1.0" standalone="no"?>
<!DOCTYPE svg PUBLIC "-//W3C//DTD SVG 20010904//EN"
 "http://www.w3.org/TR/2001/REC-SVG-20010904/DTD/svg10.dtd">
<svg version="1.0" xmlns="http://www.w3.org/2000/svg"
 width="1628.000000pt" height="1628.000000pt" viewBox="0 0 1628.000000 1628.000000"
 preserveAspectRatio="xMidYMid meet">
<metadata>
Created by potrace 1.14, written by Peter Selinger 2001-2017
</metadata>
<g transform="translate(0.000000,1628.000000) scale(0.100000,-0.100000)"
fill="#000000" stroke="none">
<path d="M8086 15835 c-11 -8 -25 -15 -30 -15 -7 0 -6 3 1 8 11 7 -68 8 -209
1 -32 -1 -58 -6 -58 -10 0 -4 -13 -4 -30 1 -16 5 -30 5 -30 0 0 -11 -33 -7
-43 5 -6 7 -10 6 -13 -2 -4 -8 -14 -9 -35 -3 -16 5 -29 5 -29 0 0 -11 -33 -7
-42 5 -5 7 -11 6 -15 -1 -11 -14 -46 -27 -38 -13 4 5 -10 3 -29 -5 -20 -8 -34
-11 -30 -5 4 7 -1 7 -15 0 -12 -7 -26 -9 -31 -6 -6 3 -10 1 -10 -5 0 -7 -7 -7
-22 1 -15 8 -23 9 -26 1 -2 -7 -13 -7 -33 -2 -16 5 -29 5 -29 0 0 -4 -12 -5
-27 -1 -20 6 -31 3 -40 -8 -11 -14 -12 -14 -13 -1 0 13 -1 13 -10 0 -7 -10
-10 -11 -10 -2 0 10 -7 9 -29 -2 -16 -9 -31 -12 -34 -9 -4 3 -13 1 -21 -6 -11
-9 -15 -9 -19 1 -4 10 -6 10 -6 -1 -1 -11 -4 -11 -16 -1 -8 7 -15 8 -15 3 0
-5 -7 -10 -15 -10 -8 0 -15 5 -15 10 0 5 -7 4 -15 -3 -11 -9 -15 -9 -15 -1 0
8 -6 9 -17 3 -10 -5 -24 -7 -32 -4 -8 2 -11 0 -7 -6 3 -6 -1 -9 -11 -7 -10 2
-18 4 -18 5 0 10 -38 5 -41 -5 -3 -8 -12 -11 -20 -8 -8 3 -14 0 -14 -6 0 -6
-5 -11 -11 -11 -6 0 -7 6 -2 13 4 6 -6 4 -21 -7 -18 -11 -26 -13 -21 -5 6 11
5 11 -5 2 -7 -6 -19 -9 -28 -6 -9 4 -13 2 -9 -4 9 -14 -8 -19 -65 -18 -27 0
-48 -4 -48 -10 0 -5 -5 -3 -10 5 -6 9 -10 11 -10 3 0 -7 -7 -10 -15 -7 -8 4
-15 1 -15 -6 0 -7 -7 -10 -15 -6 -8 3 -15 0 -15 -5 0 -7 -11 -9 -25 -7 -14 3
-25 1 -25 -3 0 -5 -12 -4 -26 1 -14 6 -23 6 -20 1 5 -8 -29 -25 -46 -22 -5 1
-8 -2 -8 -6 0 -5 -11 -8 -24 -8 -13 0 -22 3 -19 8 2 4 -1 7 -6 7 -6 0 -11 -4
-11 -8 0 -5 -7 -9 -15 -10 -8 -1 -22 -3 -30 -4 -8 -1 -15 -4 -15 -8 0 -4 -10
-6 -22 -6 -13 1 -31 -4 -40 -12 -10 -9 -18 -10 -18 -4 0 7 -8 7 -24 -1 -13 -7
-22 -15 -20 -19 3 -4 -2 -5 -11 -2 -8 4 -22 1 -29 -5 -11 -9 -15 -9 -19 1 -4
10 -8 10 -16 -2 -6 -8 -11 -11 -11 -6 0 5 -7 3 -15 -4 -8 -7 -15 -9 -15 -4 0
4 -5 3 -12 -4 -7 -7 -27 -12 -44 -12 -18 0 -36 -4 -39 -10 -3 -5 -15 -10 -26
-10 -10 0 -19 -4 -19 -10 0 -6 -9 -6 -26 0 -14 6 -23 6 -20 1 5 -8 -29 -25
-46 -22 -5 1 -8 -4 -8 -10 0 -5 -4 -8 -9 -4 -5 3 -13 0 -17 -6 -4 -8 -9 -7
-15 2 -6 10 -9 11 -9 2 0 -7 -8 -13 -18 -13 -10 0 -22 -4 -28 -10 -5 -5 -24
-10 -43 -12 -18 -1 -36 -8 -38 -16 -3 -7 -12 -11 -19 -8 -8 3 -14 0 -14 -6 0
-7 -5 -6 -15 2 -12 10 -15 10 -15 0 0 -8 -3 -11 -6 -7 -4 3 -13 -1 -21 -9 -9
-8 -23 -12 -34 -9 -10 4 -19 3 -19 -2 0 -10 -56 -35 -85 -38 -10 -1 -21 -8
-23 -14 -2 -6 -8 -9 -13 -5 -5 3 -9 0 -9 -6 0 -7 -6 -10 -14 -7 -8 3 -17 3
-21 -1 -6 -7 -10 -8 -36 -11 -5 0 -8 -5 -4 -10 3 -6 -3 -10 -12 -10 -39 -1
-53 -5 -53 -13 0 -5 -4 -6 -10 -3 -5 3 -10 2 -10 -3 0 -6 -7 -13 -16 -16 -10
-4 -13 -2 -8 6 4 7 -6 2 -23 -10 -17 -12 -33 -19 -37 -15 -3 3 -6 1 -6 -4 0
-6 -11 -10 -25 -8 -14 1 -24 0 -21 -2 8 -8 -18 -31 -28 -26 -4 3 -12 -1 -17
-8 -7 -12 -9 -12 -9 0 0 9 -10 3 -25 -13 -14 -15 -25 -23 -25 -17 0 11 -83
-27 -88 -40 -2 -5 -8 -7 -13 -3 -5 3 -12 -2 -15 -11 -6 -13 -8 -14 -15 -3 -7
10 -9 11 -9 0 0 -7 -4 -11 -9 -8 -5 3 -14 -1 -21 -9 -7 -8 -16 -12 -21 -9 -5
3 -9 1 -9 -3 0 -5 -9 -14 -20 -20 -17 -11 -19 -10 -14 5 5 13 2 13 -13 -4 -17
-19 -70 -48 -102 -56 -8 -2 -23 -9 -32 -17 -10 -8 -25 -16 -34 -17 -9 -1 -25
-10 -34 -18 -10 -9 -28 -16 -41 -16 -13 0 -20 -3 -17 -7 10 -9 -31 -35 -43
-28 -6 3 -10 -1 -10 -9 0 -9 -8 -16 -17 -16 -10 0 -29 -9 -43 -20 -14 -11 -31
-20 -38 -20 -7 0 -15 -7 -18 -15 -4 -8 -10 -12 -15 -10 -4 3 -17 -3 -29 -15
-11 -11 -27 -20 -35 -20 -7 0 -19 -8 -24 -17 -6 -10 -11 -14 -11 -9 0 5 -7 3
-15 -4 -8 -7 -15 -9 -15 -6 0 4 -6 1 -14 -6 -8 -7 -11 -17 -8 -22 3 -5 -2 -6
-12 -3 -10 4 -19 1 -22 -8 -4 -8 -12 -15 -20 -15 -8 0 -14 -5 -14 -11 0 -5 -5
-7 -10 -4 -6 3 -13 -1 -16 -9 -3 -9 -10 -14 -14 -11 -5 3 -16 -2 -24 -11 -9
-8 -16 -13 -16 -9 0 4 -7 -1 -16 -9 -8 -9 -20 -13 -26 -10 -6 4 -8 2 -5 -3 4
-6 -9 -18 -29 -28 -19 -9 -38 -23 -41 -30 -2 -8 -13 -17 -24 -20 -11 -4 -16
-11 -12 -18 4 -7 -2 -5 -12 3 -11 9 -16 10 -11 3 4 -8 2 -13 -7 -13 -8 0 -18
-7 -21 -16 -3 -8 -10 -12 -16 -9 -5 3 -10 2 -10 -4 0 -5 -9 -13 -20 -16 -11
-4 -18 -11 -15 -16 4 -5 -1 -9 -10 -9 -9 0 -27 -11 -40 -25 -14 -13 -25 -22
-25 -19 0 3 -7 -2 -16 -10 -8 -9 -22 -16 -30 -16 -8 0 -14 -4 -14 -10 0 -5 -7
-10 -16 -10 -8 0 -13 -4 -9 -9 3 -6 -10 -17 -29 -26 -19 -9 -36 -26 -39 -37
-3 -11 -11 -18 -18 -16 -7 2 -21 -3 -30 -11 -35 -32 -48 -41 -59 -41 -5 0 -9
-3 -7 -7 1 -5 -2 -9 -7 -10 -5 0 -13 -8 -18 -17 -5 -9 -16 -16 -23 -16 -8 0
-15 -4 -15 -9 0 -5 -11 -12 -25 -15 -14 -4 -24 -10 -22 -14 3 -7 -51 -64 -66
-69 -4 -2 -7 -6 -6 -9 0 -4 -10 -12 -23 -19 -13 -6 -22 -17 -20 -24 1 -7 -2
-10 -8 -6 -5 3 -10 1 -10 -6 0 -7 -3 -9 -7 -6 -3 4 -19 -7 -35 -23 -15 -16
-30 -30 -33 -30 -3 0 -10 0 -17 0 -6 0 -9 -3 -5 -6 8 -8 -18 -34 -33 -34 -6 0
-9 -3 -7 -7 5 -10 -30 -43 -37 -35 -3 3 -6 -2 -6 -11 0 -9 -5 -17 -11 -17 -6
0 -35 -24 -65 -54 -30 -30 -54 -52 -54 -49 0 3 -13 -10 -29 -30 -15 -20 -31
-34 -35 -30 -3 3 -6 -1 -6 -11 0 -9 -4 -14 -10 -11 -5 3 -10 3 -10 -2 0 -11
-117 -132 -122 -127 -3 2 -10 -6 -17 -19 -7 -12 -27 -33 -46 -47 -18 -14 -31
-28 -29 -32 4 -7 -22 -33 -72 -74 -10 -9 -13 -12 -5 -8 9 5 12 3 7 -4 -4 -7
-14 -12 -22 -12 -8 0 -13 -4 -9 -9 3 -6 0 -13 -7 -18 -7 -4 -24 -25 -38 -45
-13 -20 -28 -35 -31 -32 -4 2 -10 -5 -14 -16 -3 -11 -14 -20 -22 -20 -9 0 -14
-3 -10 -6 3 -3 -5 -18 -19 -32 -13 -15 -24 -30 -24 -35 0 -4 -5 -5 -12 -1 -8
5 -9 2 -5 -10 4 -9 3 -15 -2 -12 -13 8 -34 -21 -25 -35 4 -8 3 -9 -4 -5 -6 4
-17 -5 -26 -21 -8 -15 -30 -44 -48 -63 -18 -19 -40 -44 -48 -54 -13 -18 -13
-19 0 -12 8 4 6 0 -4 -8 -11 -9 -23 -16 -28 -16 -4 0 -7 -3 -7 -7 3 -21 -3
-33 -17 -33 -8 0 -13 -4 -10 -8 3 -5 -6 -20 -20 -35 -14 -15 -22 -27 -19 -27
3 0 -3 -8 -13 -18 -29 -31 -52 -62 -47 -62 3 0 1 -6 -5 -12 -41 -51 -90 -119
-90 -126 0 -5 -12 -22 -27 -37 -16 -16 -21 -25 -13 -20 8 5 2 -4 -13 -20 -15
-16 -25 -35 -23 -42 3 -8 1 -11 -4 -8 -6 3 -10 1 -10 -5 0 -6 -9 -20 -20 -32
-10 -12 -17 -25 -14 -30 3 -4 -1 -11 -10 -14 -8 -3 -19 -19 -25 -35 -5 -16
-15 -29 -21 -29 -6 0 -8 -4 -5 -10 3 -5 1 -10 -5 -10 -6 0 -9 -4 -6 -9 3 -5
-1 -12 -10 -15 -9 -4 -14 -9 -11 -13 4 -3 -1 -12 -11 -20 -10 -9 -11 -12 -2
-7 15 8 -14 -33 -35 -48 -5 -4 -6 -8 -1 -8 5 0 -1 -12 -15 -27 -13 -15 -17
-23 -9 -18 9 6 7 2 -3 -7 -11 -10 -16 -18 -11 -18 4 0 -1 -7 -12 -16 -10 -8
-12 -12 -4 -8 11 6 10 2 -3 -13 -9 -11 -17 -25 -17 -31 0 -7 -5 -12 -11 -12
-5 0 -7 -4 -4 -10 3 -5 1 -10 -4 -10 -6 0 -11 -5 -11 -11 0 -5 6 -7 12 -4 7 4
2 -2 -11 -13 -15 -12 -21 -24 -16 -32 5 -8 4 -11 -3 -6 -6 3 -13 -3 -17 -14
-3 -11 -11 -20 -16 -20 -6 0 -8 -4 -5 -9 4 -5 3 -11 -1 -13 -9 -3 -57 -96 -59
-112 0 -6 -2 -17 -2 -24 -1 -7 -6 -10 -12 -7 -5 3 -10 -1 -10 -9 0 -9 -5 -16
-11 -16 -5 0 -8 -4 -4 -9 3 -5 -8 -33 -25 -61 -16 -28 -30 -57 -30 -65 0 -8
-5 -15 -11 -15 -5 0 -8 -4 -5 -9 3 -5 -1 -12 -10 -15 -9 -3 -14 -12 -11 -20 3
-7 -5 -30 -19 -49 -17 -25 -20 -37 -11 -40 9 -4 9 -6 -1 -6 -7 -1 -10 -5 -7
-11 3 -5 2 -10 -4 -10 -6 0 -15 -10 -22 -21 -8 -15 -8 -19 0 -15 18 11 13 -2
-9 -24 -12 -12 -18 -25 -15 -30 4 -6 1 -10 -6 -10 -7 0 -9 -10 -7 -25 3 -13 1
-22 -3 -19 -5 3 -9 -2 -9 -10 0 -9 -5 -16 -12 -16 -6 0 -8 -3 -5 -7 4 -3 2
-12 -4 -20 -9 -10 -8 -13 0 -13 7 0 0 -11 -15 -25 -15 -14 -21 -25 -15 -25 8
0 7 -6 -4 -16 -9 -9 -14 -23 -11 -30 3 -8 1 -14 -5 -14 -6 0 -9 -6 -6 -14 3
-7 0 -19 -6 -26 -9 -10 -9 -11 3 -6 9 5 8 2 -2 -7 -10 -8 -18 -19 -18 -26 0
-6 -4 -11 -8 -11 -4 0 -8 -8 -9 -17 -3 -38 -11 -58 -23 -55 -6 1 -9 -1 -7 -5
10 -16 -9 -78 -23 -75 -7 2 -10 -3 -7 -11 3 -8 0 -20 -6 -27 -9 -10 -9 -11 3
-5 13 8 13 7 1 -8 -7 -9 -10 -17 -6 -17 5 0 1 -8 -7 -17 -8 -10 -14 -28 -13
-40 1 -13 -2 -23 -7 -23 -5 0 -7 -4 -3 -9 3 -5 1 -12 -5 -16 -6 -4 -8 -11 -5
-16 4 -5 1 -9 -5 -9 -7 0 -10 -6 -7 -14 3 -7 0 -19 -6 -26 -9 -10 -9 -11 3 -6
12 6 12 5 -1 -6 -9 -7 -14 -18 -12 -24 2 -7 -3 -19 -12 -27 -9 -9 -12 -23 -8
-33 3 -10 2 -15 -3 -12 -5 3 -10 -7 -10 -24 -1 -17 -7 -33 -13 -37 -7 -4 -11
-24 -9 -45 1 -21 -3 -41 -10 -45 -6 -4 -13 -16 -15 -26 -1 -11 -6 -26 -10 -32
-5 -8 -3 -13 4 -13 10 0 10 -3 1 -12 -7 -7 -12 -20 -12 -30 0 -10 -5 -18 -11
-18 -6 0 -9 -9 -6 -20 3 -11 1 -20 -5 -20 -5 0 -7 -4 -3 -9 3 -6 -3 -31 -13
-58 -10 -26 -19 -68 -21 -93 -1 -25 -7 -50 -12 -56 -5 -6 -6 -14 -2 -17 3 -4
0 -7 -7 -7 -7 0 -10 -3 -7 -7 4 -3 2 -12 -4 -20 -9 -10 -8 -13 1 -13 10 0 10
-3 0 -15 -10 -12 -10 -15 0 -15 9 0 10 -3 1 -13 -6 -8 -8 -17 -4 -20 3 -4 1
-7 -6 -7 -7 0 -9 -4 -6 -10 3 -5 -2 -21 -11 -35 -13 -20 -13 -25 -3 -25 12 0
12 -2 0 -9 -11 -7 -11 -9 0 -14 9 -4 10 -6 2 -6 -7 -1 -10 -8 -7 -16 4 -8 1
-22 -6 -30 -10 -12 -10 -15 1 -15 11 -1 11 -3 -1 -13 -9 -7 -15 -22 -14 -34 1
-13 -2 -23 -6 -23 -4 0 -7 -6 -7 -13 0 -7 -3 -26 -7 -42 -5 -23 -4 -27 4 -15
9 12 10 11 5 -7 -3 -12 -8 -32 -10 -45 -3 -12 -10 -25 -15 -26 -7 -3 -7 -9 1
-18 8 -10 8 -14 0 -14 -6 0 -10 -3 -10 -7 1 -5 0 -10 -1 -13 -7 -18 -4 -60 4
-60 6 0 5 -5 -2 -12 -7 -7 -8 -17 -1 -30 6 -10 6 -18 0 -18 -5 0 -12 -7 -15
-16 -4 -9 -2 -13 5 -8 7 4 7 -1 -1 -16 -6 -12 -9 -24 -6 -27 3 -4 2 -11 -3
-17 -8 -9 -16 -109 -11 -126 8 -24 7 -39 -3 -33 -6 4 -8 0 -4 -9 3 -9 0 -21
-6 -27 -8 -8 -8 -11 2 -11 9 0 10 -4 4 -12 -15 -20 -24 -50 -13 -43 13 8 0
-27 -14 -38 -8 -6 -7 -10 1 -14 9 -3 10 -10 3 -24 -6 -10 -7 -19 -2 -19 4 0 8
-9 8 -20 0 -11 -4 -20 -8 -20 -5 0 -4 -8 1 -19 6 -10 7 -21 4 -25 -11 -11 -12
-36 -1 -36 6 0 4 -7 -3 -17 -12 -15 -12 -16 1 -8 13 8 13 7 1 -9 -12 -14 -12
-19 -2 -26 11 -6 10 -10 -4 -17 -10 -6 -13 -13 -8 -16 6 -4 7 -25 3 -51 -4
-25 -3 -43 2 -40 4 3 8 0 8 -5 0 -6 -3 -11 -7 -11 -12 0 -10 -74 2 -82 6 -5 5
-8 -3 -8 -7 0 -10 -5 -7 -10 4 -6 1 -17 -5 -25 -10 -12 -10 -15 0 -15 10 0 10
-3 0 -15 -10 -12 -10 -15 0 -15 10 0 10 -3 0 -15 -10 -12 -10 -15 0 -15 9 0 9
-4 2 -13 -16 -18 -19 -110 -4 -115 9 -3 9 -9 2 -23 -8 -13 -7 -19 0 -19 8 0 8
-6 0 -20 -8 -15 -8 -20 1 -20 8 0 8 -4 -1 -15 -7 -8 -8 -15 -3 -15 5 0 9 -9 9
-20 0 -11 -4 -20 -9 -20 -5 0 -4 -7 3 -15 7 -8 9 -15 4 -15 -5 0 -2 -5 6 -10
12 -8 12 -10 1 -10 -11 0 -11 -3 -1 -15 7 -8 9 -15 4 -15 -11 0 -9 -149 2
-158 4 -4 4 -1 -1 7 -5 9 -4 12 3 7 8 -4 8 -15 2 -31 -7 -17 -6 -25 1 -25 8 0
7 -5 -1 -15 -7 -9 -10 -18 -6 -22 3 -3 6 0 6 7 0 7 3 10 6 7 4 -4 1 -13 -6
-22 -9 -11 -9 -15 -1 -15 9 0 9 -5 1 -20 -7 -14 -7 -20 0 -20 5 0 10 -5 10
-11 0 -5 -4 -8 -8 -5 -5 3 -9 -1 -9 -9 0 -8 4 -15 9 -15 5 0 4 -9 -2 -20 -7
-14 -7 -20 0 -20 5 0 10 -5 10 -11 0 -5 -6 -7 -12 -4 -7 4 -4 -1 6 -9 13 -10
15 -16 7 -16 -10 0 -11 -3 -2 -14 9 -11 9 -15 -1 -19 -11 -4 -10 -6 0 -6 7 -1
10 -5 7 -11 -3 -5 0 -10 7 -10 9 0 9 -3 -2 -10 -8 -5 -10 -10 -3 -10 6 0 10
-11 9 -25 -2 -13 1 -22 5 -19 5 3 9 0 9 -5 0 -6 -4 -11 -9 -11 -6 0 -6 -12 -1
-30 5 -16 5 -30 1 -30 -10 0 -1 -59 10 -66 5 -3 5 -14 -1 -25 -7 -13 -7 -19 0
-19 5 0 10 -11 10 -25 0 -14 6 -25 13 -25 8 0 7 -4 -3 -10 -11 -7 -11 -10 -2
-10 10 0 10 -5 1 -21 -9 -17 -8 -20 3 -13 11 6 11 5 -1 -9 -9 -12 -10 -17 -2
-17 8 0 9 -5 2 -17 -6 -12 -5 -26 6 -46 8 -16 10 -26 4 -23 -7 4 -8 1 -5 -8 3
-9 11 -16 17 -16 6 0 7 -3 4 -6 -3 -4 -2 -15 4 -25 7 -14 6 -19 -2 -19 -9 0
-9 -3 0 -14 9 -11 9 -15 -1 -19 -9 -4 -10 -6 -1 -6 7 -1 10 -8 7 -16 -4 -8 -1
-15 6 -15 10 0 10 -3 0 -15 -9 -11 -9 -15 -1 -15 7 0 9 -4 6 -10 -3 -6 -1 -10
5 -10 6 0 8 -5 5 -10 -4 -6 -1 -18 7 -27 11 -14 11 -16 -2 -8 -9 5 -8 0 4 -13
14 -17 16 -22 5 -22 -11 0 -11 -2 1 -10 9 -6 10 -10 3 -10 -8 0 -9 -9 -3 -29
4 -16 6 -32 2 -35 -3 -3 0 -6 7 -6 7 0 9 -5 6 -10 -3 -6 1 -13 10 -16 13 -6
14 -8 3 -15 -10 -7 -10 -9 0 -9 10 0 10 -5 2 -20 -8 -15 -8 -20 2 -20 9 0 9
-3 -2 -10 -8 -5 -10 -10 -4 -10 13 0 21 -28 34 -113 4 -32 16 -67 26 -78 13
-15 14 -19 3 -19 -9 0 -10 -3 -4 -8 6 -4 12 -23 14 -42 1 -19 7 -36 12 -38 5
-2 9 -12 9 -21 0 -10 3 -21 7 -25 11 -11 10 -40 -2 -48 -6 -5 -5 -8 3 -8 6 0
12 -9 12 -19 0 -10 6 -21 13 -24 7 -3 11 -21 11 -46 -1 -22 2 -41 8 -41 5 0 6
-5 3 -10 -3 -6 1 -13 10 -16 10 -4 12 -10 6 -18 -6 -7 0 -30 17 -66 15 -30 26
-62 24 -71 -2 -9 3 -23 10 -31 14 -14 17 -25 20 -63 1 -14 5 -25 9 -25 4 0 10
-7 13 -16 4 -10 2 -13 -7 -8 -6 4 -4 -2 6 -13 9 -11 14 -23 11 -26 -4 -4 -2
-13 4 -20 7 -8 9 -17 5 -20 -3 -4 -1 -7 6 -7 7 0 10 -4 6 -9 -3 -5 2 -17 11
-25 11 -12 12 -16 2 -16 -8 0 -9 -3 -3 -8 15 -11 39 -56 25 -47 -14 9 10 -36
25 -47 6 -4 6 -8 1 -8 -5 0 -3 -7 4 -15 6 -8 9 -19 5 -25 -3 -5 -2 -10 4 -10
6 0 8 -7 5 -15 -4 -8 -1 -15 6 -15 6 0 9 -4 6 -9 -3 -5 0 -11 8 -14 8 -3 12
-14 10 -24 -3 -10 4 -28 15 -40 13 -14 17 -24 10 -28 -7 -5 -7 -11 0 -19 6 -7
7 -17 3 -21 -4 -5 -2 -5 5 -1 11 6 30 -29 24 -48 -1 -5 2 -12 6 -15 18 -13 42
-60 33 -63 -6 -2 0 -14 13 -28 13 -14 22 -30 20 -37 -2 -6 3 -17 11 -26 8 -8
12 -17 9 -21 -4 -3 0 -6 8 -6 11 0 11 -2 1 -9 -11 -7 -11 -11 2 -24 9 -8 16
-21 16 -27 0 -6 7 -13 15 -16 8 -4 12 -10 10 -15 -3 -5 2 -20 11 -34 9 -14 13
-25 10 -25 -4 0 2 -10 14 -22 11 -12 20 -30 20 -40 0 -10 3 -18 8 -18 4 0 13
-9 20 -21 11 -17 11 -20 0 -13 -10 6 -11 5 -1 -8 7 -8 10 -18 6 -21 -3 -4 2
-9 11 -13 9 -3 13 -10 10 -15 -3 -5 2 -12 11 -15 13 -6 14 -8 3 -15 -10 -7
-10 -9 0 -9 6 0 12 -7 12 -15 0 -8 5 -15 10 -15 6 0 10 -12 10 -26 0 -14 4
-23 10 -19 6 3 10 -1 10 -9 0 -9 5 -16 11 -16 5 0 8 -4 4 -9 -3 -5 -1 -12 5
-16 5 -3 17 -21 26 -40 9 -19 21 -35 26 -35 5 0 6 -4 3 -10 -3 -5 -1 -10 5
-10 6 0 9 -4 6 -9 -3 -5 1 -14 9 -21 8 -7 12 -16 9 -21 -3 -5 0 -9 5 -9 6 0
11 -7 11 -15 0 -8 5 -15 11 -15 5 0 8 -4 5 -8 -3 -5 4 -16 15 -25 11 -10 17
-22 14 -27 -3 -6 -2 -10 2 -10 5 0 14 -12 20 -28 16 -37 35 -65 51 -75 18 -12
42 -63 34 -72 -4 -5 -1 -5 5 -1 8 4 13 1 13 -9 0 -9 4 -13 10 -10 6 3 7 -1 4
-9 -3 -9 -1 -16 5 -16 6 0 11 -7 11 -15 0 -8 5 -15 11 -15 5 0 8 -4 5 -9 -3
-5 1 -11 9 -15 8 -3 15 -12 15 -21 0 -8 5 -15 10 -15 6 0 10 -6 10 -14 0 -8 7
-16 15 -20 8 -3 12 -12 9 -21 -4 -10 0 -15 10 -15 9 0 16 -8 16 -21 0 -11 4
-18 9 -14 6 3 17 -10 27 -30 9 -19 20 -35 25 -35 5 0 9 -6 9 -12 0 -7 18 -35
39 -63 22 -27 38 -52 35 -56 -2 -4 5 -11 17 -14 11 -4 18 -9 16 -12 -3 -2 8
-18 24 -34 16 -16 29 -33 29 -38 0 -4 13 -22 30 -39 16 -18 30 -36 30 -42 0
-5 5 -10 12 -10 6 0 9 -3 5 -6 -3 -3 5 -16 19 -29 13 -12 24 -26 24 -30 0 -4
14 -21 30 -37 17 -15 30 -32 30 -37 0 -5 7 -12 16 -15 8 -3 12 -10 9 -16 -3
-5 -2 -10 2 -10 5 0 27 -17 49 -37 21 -20 32 -33 24 -28 -16 9 10 -22 72 -86
21 -22 35 -39 31 -39 -3 0 0 -7 7 -15 7 -8 16 -12 21 -9 5 3 8 2 7 -3 -3 -11
32 -63 43 -63 5 0 18 -9 29 -20 11 -11 18 -20 15 -20 -2 0 6 -10 18 -23 12
-13 24 -22 25 -21 7 5 41 -30 36 -37 -2 -4 5 -10 16 -14 11 -3 20 -11 20 -17
0 -12 50 -61 50 -50 1 4 7 -4 15 -18 8 -14 14 -22 15 -19 0 4 28 -21 63 -55
35 -33 62 -64 60 -68 -2 -4 5 -9 16 -13 10 -3 21 -15 24 -25 3 -11 12 -20 21
-20 9 0 16 -4 16 -10 0 -5 7 -10 16 -10 8 0 12 -4 9 -10 -6 -9 8 -14 27 -11 5
0 7 -2 5 -7 -1 -4 11 -21 27 -37 16 -17 25 -23 22 -15 -5 9 -2 8 7 -2 8 -10
18 -18 22 -18 4 0 16 -11 27 -25 11 -14 24 -22 30 -19 6 4 8 2 5 -3 -8 -12 27
-46 36 -36 4 3 7 0 7 -8 0 -8 16 -23 35 -33 19 -10 37 -28 41 -38 3 -11 8 -17
11 -14 4 3 12 -2 20 -12 9 -10 12 -11 7 -2 -4 8 7 2 24 -13 16 -16 40 -37 51
-48 12 -10 21 -16 21 -12 0 3 12 -7 26 -23 15 -16 23 -23 19 -15 -5 9 1 7 18
-5 15 -10 29 -26 32 -34 5 -16 65 -56 65 -44 0 4 8 -3 19 -14 10 -12 21 -19
25 -15 3 3 6 -1 6 -10 0 -10 8 -17 20 -17 10 0 24 -8 29 -18 6 -9 11 -13 11
-8 0 5 10 -2 23 -15 13 -13 30 -25 38 -27 7 -2 18 -10 22 -18 4 -8 14 -14 21
-14 7 0 25 -11 40 -25 14 -13 26 -21 26 -18 0 3 8 -4 19 -15 10 -12 21 -19 25
-15 3 3 6 1 6 -6 0 -7 4 -9 10 -6 6 3 10 1 10 -4 0 -6 7 -11 15 -11 8 0 23 -8
33 -18 26 -24 59 -42 77 -42 9 0 13 -4 10 -10 -3 -5 1 -10 10 -10 9 0 13 -4
10 -10 -4 -6 5 -10 19 -10 17 0 26 -6 26 -16 0 -8 4 -12 10 -9 5 3 10 1 10 -4
0 -6 3 -10 7 -9 16 3 81 -32 87 -47 3 -8 9 -15 13 -14 20 3 34 -2 28 -11 -3
-5 3 -10 14 -10 12 0 21 -5 21 -12 0 -6 3 -8 7 -5 3 4 18 -3 31 -15 14 -13 22
-17 18 -10 -4 6 -2 12 3 12 6 0 11 -5 11 -12 0 -6 3 -8 6 -5 4 4 15 -3 25 -14
9 -11 20 -20 23 -20 20 3 26 0 21 -9 -3 -5 3 -10 15 -10 14 0 19 -4 14 -12 -5
-8 -2 -9 9 -5 9 3 19 2 22 -4 4 -5 11 -7 16 -4 5 4 9 1 9 -4 0 -6 7 -11 15
-11 8 0 24 -9 35 -20 12 -12 20 -15 20 -7 0 8 3 9 8 1 11 -17 71 -46 83 -39 5
4 8 1 7 -7 -2 -7 3 -12 10 -11 6 2 12 -1 12 -7 0 -5 7 -7 15 -3 10 3 15 0 13
-8 -2 -7 2 -13 7 -14 6 0 20 -6 33 -13 12 -7 22 -10 22 -6 0 3 6 1 13 -5 8 -6
17 -8 20 -4 4 3 7 1 7 -5 0 -7 9 -12 20 -12 11 0 20 -5 20 -11 0 -5 4 -7 10
-4 6 3 10 1 10 -5 0 -6 4 -9 9 -6 5 4 11 1 13 -4 2 -6 13 -12 26 -13 12 0 22
-4 22 -8 0 -3 12 -11 26 -17 14 -7 23 -8 19 -2 -3 5 0 7 9 4 8 -3 17 -12 20
-21 4 -8 13 -13 21 -9 8 3 15 1 15 -4 0 -5 7 -6 17 -3 11 4 14 3 9 -5 -6 -11
5 -17 26 -13 5 0 8 -4 8 -9 0 -6 9 -10 20 -10 11 0 20 -4 20 -10 0 -5 13 -10
29 -10 16 0 36 -6 43 -13 7 -7 18 -15 23 -16 6 -2 15 -6 22 -8 7 -3 18 -3 25
-1 7 3 21 -5 31 -16 10 -12 15 -14 11 -6 -7 13 -5 13 9 1 9 -7 24 -11 32 -7 9
3 13 2 10 -4 -3 -6 1 -10 9 -10 9 0 16 -4 16 -10 0 -5 13 -10 29 -10 17 0 33
-5 36 -10 4 -6 11 -8 16 -5 5 4 12 -1 15 -10 5 -11 10 -13 19 -5 10 8 15 8 20
0 4 -6 14 -9 22 -6 8 3 11 1 8 -4 -6 -9 8 -14 28 -11 4 0 7 -4 7 -10 0 -5 5
-7 10 -4 6 4 17 1 25 -5 8 -6 19 -9 24 -6 5 4 12 2 16 -4 4 -6 11 -8 16 -5 5
4 9 1 9 -4 0 -6 14 -11 30 -11 17 0 30 -5 30 -11 0 -5 4 -7 10 -4 6 3 10 1 10
-6 0 -7 3 -9 7 -6 3 4 13 1 21 -6 13 -10 14 -9 7 2 -6 11 -5 12 6 5 8 -4 23
-10 34 -11 10 -2 22 -8 25 -13 3 -5 25 -10 48 -11 24 -2 47 -9 53 -15 6 -7 17
-10 25 -7 8 3 14 1 14 -5 0 -6 8 -9 18 -8 9 2 20 -2 24 -8 5 -7 8 -6 8 4 0 13
1 13 10 0 8 -13 10 -13 10 -1 0 12 3 11 13 -2 6 -9 24 -18 40 -19 15 -1 27 -6
27 -11 0 -5 7 -4 15 3 11 9 15 9 15 1 0 -7 4 -9 10 -6 6 3 10 1 10 -5 0 -6 5
-8 10 -5 6 3 10 2 10 -4 0 -5 9 -8 20 -6 11 2 20 -2 20 -8 0 -8 3 -8 8 -2 6 9
22 11 47 5 6 -1 13 -2 18 -1 4 0 7 -4 7 -10 0 -5 5 -7 10 -4 6 3 10 1 10 -5 0
-6 4 -9 9 -5 5 3 12 2 15 -3 3 -5 21 -7 40 -6 20 2 38 -1 41 -6 3 -5 12 -7 20
-3 8 3 15 0 15 -7 0 -6 4 -8 10 -5 5 3 10 0 10 -7 0 -10 2 -10 8 -1 5 8 13 9
22 3 21 -14 32 -12 24 3 -6 8 -3 8 9 -2 9 -7 23 -11 32 -8 8 4 17 2 20 -4 4
-5 11 -7 16 -4 5 4 9 2 9 -3 0 -6 9 -8 20 -5 12 3 20 0 20 -7 0 -8 17 -11 53
-9 28 1 62 -3 75 -10 12 -6 22 -9 22 -6 0 3 10 0 23 -7 27 -15 48 -16 65 -4 7
5 12 4 12 -3 0 -7 5 -9 13 -4 19 12 40 10 60 -6 13 -11 17 -11 17 -1 0 9 6 8
20 -5 13 -12 20 -14 20 -5 0 10 3 10 14 0 8 -6 37 -10 63 -9 27 1 54 -1 61 -5
7 -4 12 -2 12 6 0 9 3 9 10 -2 5 -8 10 -11 10 -6 0 5 6 3 14 -3 11 -9 15 -9
18 0 3 9 12 7 31 -6 21 -13 27 -14 27 -4 0 11 2 11 10 -1 9 -13 10 -13 10 0 1
13 2 13 13 -1 8 -11 19 -14 32 -9 11 4 28 3 38 -2 9 -5 17 -5 17 0 0 4 9 8 20
8 11 0 20 -4 20 -9 0 -5 8 -3 17 4 15 12 16 12 8 -1 -8 -13 -7 -13 8 -1 12 9
17 10 17 2 0 -8 5 -9 18 -2 13 7 23 6 30 -1 12 -12 359 -15 370 -3 3 2 11 0
19 -6 7 -6 13 -8 13 -4 0 4 8 1 17 -6 15 -12 16 -12 8 1 -8 13 -7 13 8 1 12
-9 17 -10 17 -2 0 7 5 9 13 4 19 -11 70 -10 90 3 11 7 30 9 45 5 23 -6 328 -6
342 -1 3 1 8 2 13 1 4 0 7 5 7 12 0 8 4 7 10 -3 7 -11 10 -11 10 -2 0 9 5 10
19 3 10 -6 21 -7 25 -4 9 10 36 13 36 4 0 -4 9 -7 20 -7 11 0 20 4 20 8 0 5 9
4 19 -2 13 -6 22 -7 26 0 3 5 13 6 21 3 9 -3 20 0 25 8 7 12 9 12 9 0 0 -11 5
-10 24 3 16 10 27 12 31 6 4 -7 13 -6 26 0 11 6 43 9 72 7 28 -2 66 1 82 8 17
6 36 10 43 8 6 -3 12 -1 12 5 0 5 14 8 30 7 17 -1 30 3 30 8 0 6 5 6 13 0 11
-8 66 -10 92 -3 6 2 15 4 20 4 6 1 21 8 34 15 13 7 34 11 47 8 13 -2 24 0 24
4 0 5 5 9 11 9 5 0 8 -4 5 -8 -3 -5 1 -9 9 -9 8 0 17 7 20 16 5 13 7 14 16 1
7 -12 11 -12 17 -3 4 7 17 14 27 16 11 1 26 6 33 10 7 5 12 3 12 -4 0 -10 3
-10 11 -2 6 6 18 9 25 6 8 -3 14 0 14 6 0 6 5 11 11 11 5 0 7 -4 4 -10 -7 -11
23 -3 41 11 6 5 20 7 33 4 12 -2 19 0 16 4 -3 5 2 11 10 15 8 3 15 2 15 -2 0
-4 9 -8 19 -8 11 0 17 4 14 9 -3 5 4 6 16 2 13 -4 21 -2 21 5 0 6 4 9 9 5 5
-3 12 -1 16 5 4 6 29 10 57 9 27 -1 53 2 56 7 10 13 65 36 57 24 -4 -7 3 -7
20 0 15 6 30 8 35 5 4 -3 11 2 14 11 4 9 15 14 28 12 13 -2 28 4 35 12 10 12
12 12 13 1 0 -11 3 -11 17 0 15 12 16 12 8 -1 -8 -13 -7 -13 9 0 18 14 37 21
69 23 9 1 17 5 17 9 0 4 5 8 11 8 5 0 7 -5 3 -12 -4 -6 9 -2 29 11 20 12 37
19 37 14 0 -4 5 -1 10 7 5 8 10 10 10 4 0 -6 7 -11 15 -11 8 0 15 4 15 9 0 4
7 8 16 8 8 0 13 4 10 9 -9 14 16 20 37 9 11 -5 17 -5 17 2 0 5 9 10 20 10 10
0 24 8 29 18 7 11 10 13 11 3 0 -11 3 -11 15 -1 8 7 21 10 30 7 8 -4 17 -2 21
4 8 14 55 32 82 32 12 0 22 4 22 9 0 5 5 6 10 3 6 -3 10 -1 10 6 0 6 8 9 20 6
11 -3 20 -1 20 4 0 5 7 9 15 9 8 0 15 5 15 11 0 6 7 9 15 6 8 -4 17 -2 20 4 4
5 11 7 16 4 5 -4 16 1 25 9 9 9 20 14 25 11 5 -4 9 -1 9 5 0 6 5 8 10 5 6 -3
10 0 10 7 0 10 3 9 10 -2 8 -12 10 -12 16 3 3 9 10 14 15 11 5 -3 15 -2 22 3
6 4 21 9 32 10 11 2 25 10 31 18 6 8 14 12 17 8 4 -3 7 0 7 8 0 12 2 12 10 -1
8 -12 10 -12 16 3 3 9 12 17 20 17 8 0 14 4 14 9 0 5 9 7 20 4 12 -3 20 0 20
6 0 7 5 9 10 6 6 -3 10 -2 10 2 0 5 10 9 21 10 12 1 28 11 35 22 9 12 21 17
34 14 11 -3 20 0 20 6 0 6 3 10 8 9 17 -5 52 14 45 25 -4 7 2 5 12 -3 10 -8
16 -10 12 -4 -4 7 3 14 18 18 14 4 25 11 25 16 0 5 9 7 20 5 11 -2 20 0 20 6
0 5 7 9 16 9 9 0 12 5 8 12 -4 7 -3 10 1 5 5 -4 18 1 29 10 20 17 20 17 7 1
-7 -10 -11 -18 -9 -18 10 0 47 37 43 42 -3 2 5 4 18 3 13 -1 27 6 34 19 7 12
12 16 13 9 0 -8 9 -7 30 5 16 9 30 20 30 23 0 3 11 5 25 4 14 -2 23 0 20 5 -3
4 12 16 33 25 20 10 39 21 42 26 3 4 12 9 20 11 19 4 39 21 34 30 -3 4 7 5 20
2 19 -3 26 1 31 17 6 17 9 19 16 8 6 -10 9 -11 9 -1 0 6 7 12 15 12 7 0 19 8
24 18 6 9 11 13 11 9 0 -5 15 1 33 12 19 11 38 17 42 13 5 -4 5 -2 2 4 -4 7 5
20 19 29 18 12 24 13 19 4 -3 -8 1 -5 9 5 9 11 16 16 16 10 0 -5 6 -2 13 7 7
9 14 16 17 17 22 3 60 23 60 32 0 5 7 10 16 10 8 0 13 4 9 9 -3 5 5 11 17 13
14 2 22 9 20 18 -2 8 -1 12 3 8 10 -9 66 12 59 23 -5 8 9 13 29 10 4 0 7 4 7
10 0 5 4 8 9 4 6 -3 13 1 18 8 4 8 22 22 38 33 17 10 36 26 43 34 12 13 13 13
7 0 -4 -8 5 -3 19 13 14 15 30 27 37 27 6 0 22 11 34 24 13 14 26 22 29 19 3
-3 15 6 27 20 11 15 27 27 35 27 8 0 14 5 14 12 0 6 3 9 6 5 5 -5 40 21 88 68
12 11 24 19 28 18 5 -2 8 2 8 7 0 6 4 10 10 10 17 0 49 33 43 43 -3 6 -1 7 4
4 6 -4 25 6 42 22 16 15 33 26 35 23 3 -3 8 3 12 12 3 9 10 14 14 11 5 -3 18
7 29 21 12 15 21 23 21 18 0 -5 7 0 16 11 8 11 20 20 27 20 7 1 11 5 10 10 0
6 5 16 13 23 8 7 14 9 14 5 0 -4 11 8 25 27 14 19 25 31 25 27 0 -4 18 5 40
19 22 15 40 29 40 31 0 2 -4 1 -10 -2 -5 -3 -10 -4 -10 -1 0 3 16 12 35 22 19
9 33 19 32 22 -3 10 41 52 54 52 5 0 7 5 4 10 -3 6 1 10 9 10 9 0 16 6 16 13
0 8 11 20 25 27 14 7 25 20 25 27 0 8 5 11 10 8 6 -3 10 -2 10 4 0 5 11 22 25
37 14 15 25 23 25 19 0 -4 14 9 30 30 17 21 30 35 30 31 0 -4 10 2 22 14 12
11 26 20 30 20 5 0 6 5 3 10 -3 6 -1 10 6 10 7 0 10 3 7 6 -3 3 21 31 54 62
80 75 108 105 108 115 0 4 5 5 10 2 9 -6 14 8 11 28 -1 5 3 6 9 2 5 -3 10 -1
10 5 0 6 5 8 12 4 6 -4 8 -3 5 3 -3 5 5 21 19 36 14 15 22 27 18 27 -4 0 3 8
14 19 12 10 22 23 22 30 0 6 7 11 17 11 9 0 13 3 10 7 -4 3 5 15 20 25 16 10
24 18 18 18 -5 0 11 19 35 42 25 23 38 38 30 34 -8 -4 -5 1 8 10 12 9 22 23
22 30 0 8 3 14 8 14 4 0 18 18 32 39 13 22 27 38 31 35 4 -2 10 5 14 16 4 11
10 18 14 16 4 -3 14 10 21 29 7 19 18 31 23 28 5 -3 7 0 5 8 -3 8 15 33 41 58
25 24 40 40 34 37 -22 -12 -15 1 20 36 18 19 31 40 29 48 -3 7 0 10 5 7 6 -4
16 6 24 21 8 15 21 32 29 39 8 7 12 13 8 13 -5 0 0 9 10 19 23 27 38 45 39 51
7 25 17 39 24 34 5 -3 6 2 3 10 -4 11 0 16 11 16 9 0 13 5 10 10 -3 6 -1 10 5
10 6 0 8 5 5 10 -3 6 -2 10 4 10 6 0 13 11 17 25 3 14 9 23 13 21 4 -3 14 9
23 25 10 16 13 29 8 29 -5 0 1 10 13 23 41 43 54 63 51 79 -1 10 3 15 11 12
10 -4 20 7 30 36 10 28 19 39 29 33 6 -4 4 2 -4 12 -9 11 -10 16 -2 11 7 -4
12 -1 12 8 0 9 5 16 11 16 5 0 7 5 4 10 -3 6 -1 10 5 10 6 0 8 5 5 10 -3 6 -1
10 4 10 6 0 11 7 11 15 0 8 5 15 11 15 5 0 8 4 5 9 -3 5 3 20 14 33 11 14 17
28 13 31 -3 4 2 9 11 13 9 3 13 10 10 15 -3 5 2 9 10 9 10 0 13 6 10 15 -4 8
-1 15 6 15 6 0 8 5 5 10 -3 6 1 13 9 16 9 3 14 10 11 14 -3 5 -1 11 5 15 6 4
8 11 5 16 -4 5 -1 9 4 9 6 0 11 8 11 18 1 22 25 54 34 44 5 -4 7 0 5 8 -4 22
10 60 23 60 6 0 8 9 5 21 -3 12 -3 18 0 15 9 -9 45 53 38 65 -4 5 -1 9 6 9 7
0 10 3 6 6 -3 4 1 13 9 21 8 8 12 19 9 24 -4 5 -1 9 5 9 7 0 9 7 6 16 -3 8 -2
12 4 9 6 -3 10 1 10 9 0 9 6 16 13 16 8 0 7 4 -3 10 -10 6 -11 10 -2 10 6 0
12 7 12 16 0 9 5 12 12 8 8 -5 9 0 5 15 -3 15 1 29 13 41 10 10 16 21 12 24
-3 3 0 6 6 6 6 0 9 9 7 20 -2 12 2 23 10 27 8 3 13 9 10 13 -3 5 2 15 11 24 8
9 13 20 10 24 -3 5 2 19 11 32 10 13 18 33 18 43 1 10 8 22 15 27 7 4 10 15 7
24 -4 9 -2 16 3 16 6 0 10 9 10 21 0 13 4 18 12 13 7 -5 9 -2 5 8 -3 9 -3 19
1 23 4 4 7 10 7 13 2 20 18 52 25 52 5 0 7 6 4 14 -3 8 0 17 6 21 9 6 9 9 0
15 -9 6 -7 13 9 29 12 12 19 26 16 31 -4 6 -2 10 4 10 6 0 8 7 5 15 -4 8 1 17
10 21 9 3 13 10 10 15 -3 5 1 9 8 9 9 0 10 2 1 8 -8 5 -6 18 8 46 10 22 19 47
19 56 0 9 6 22 13 29 10 11 9 12 -3 6 -13 -8 -13 -7 -1 8 7 9 10 17 7 17 -4 0
-1 7 7 15 9 8 14 26 13 40 -2 14 1 25 5 25 5 0 8 6 7 13 -2 6 3 11 11 9 8 -2
11 3 8 13 -4 8 -1 15 6 15 9 0 9 2 0 8 -9 6 -7 19 8 52 11 25 18 53 15 62 -2
10 0 18 6 18 6 0 8 11 6 25 -3 14 -2 25 3 25 5 0 13 10 20 21 9 17 8 20 -3 13
-8 -5 -6 3 6 20 10 16 13 25 7 22 -18 -11 -13 9 9 36 10 14 17 28 14 31 -3 3
-1 15 6 26 6 12 7 21 2 21 -5 0 -9 7 -9 15 0 8 4 12 9 9 4 -3 8 4 8 15 0 12 5
21 11 21 5 0 7 4 4 10 -3 6 0 10 7 10 9 0 9 3 -2 10 -13 9 -13 10 0 10 13 0
13 1 0 10 -12 8 -12 10 -1 10 11 0 11 3 1 15 -9 11 -9 15 -1 15 7 0 10 4 6 9
-3 5 -1 12 5 16 6 4 8 11 5 16 -4 5 -2 9 4 9 6 0 7 7 4 17 -4 10 -2 14 4 10 5
-3 10 0 10 8 0 8 -4 15 -9 15 -4 0 -8 5 -8 11 0 5 4 8 9 5 4 -3 7 6 5 19 -1
14 3 25 9 25 5 0 8 3 5 6 -4 3 0 20 7 38 11 25 11 36 3 44 -9 9 -9 12 2 12 7
0 10 3 7 7 -4 3 -2 12 4 20 9 9 8 13 0 13 -6 0 -11 5 -11 11 0 5 4 8 9 5 5 -4
7 3 4 14 -3 12 0 20 7 20 7 0 10 7 7 15 -4 8 -2 17 4 20 5 4 7 11 4 16 -4 5
-1 9 5 9 8 0 8 6 0 20 -8 15 -8 20 2 20 10 0 10 2 -1 9 -11 7 -11 9 0 14 12 5
12 6 0 6 -11 1 -11 4 -1 16 7 8 9 15 5 15 -4 0 -3 6 3 13 6 7 12 26 14 42 2
17 8 33 13 37 7 5 6 8 0 8 -12 0 -13 40 -1 58 4 7 2 12 -5 12 -8 0 -8 4 1 15
7 8 9 15 6 15 -4 0 -2 10 5 21 9 17 8 20 -3 13 -10 -6 -11 -5 -1 8 7 8 10 18
6 21 -3 4 -1 7 5 7 6 0 9 9 7 20 -2 11 1 20 6 20 6 0 6 8 -1 20 -6 11 -7 20
-2 20 5 0 6 17 2 39 -5 29 -4 41 6 45 9 4 11 13 4 35 -5 20 -5 33 2 37 5 3 8
15 5 25 -3 11 -1 19 3 19 5 0 7 8 6 18 -2 9 2 21 8 25 8 6 7 10 -1 14 -9 3
-10 10 -3 24 8 14 7 19 -1 19 -8 0 -7 5 2 17 11 13 11 17 2 20 -9 3 -10 10 -3
24 8 14 7 19 -1 19 -8 0 -7 5 2 17 12 15 12 16 -1 8 -12 -7 -13 -6 -3 7 7 8
10 18 6 21 -3 4 -2 7 3 7 11 0 11 230 0 248 -4 7 -2 12 5 12 7 0 9 3 6 7 -4 3
-2 12 4 20 9 10 8 13 -1 13 -10 0 -10 3 0 15 10 12 10 15 0 15 -10 0 -10 3 0
15 10 12 10 15 -1 15 -11 1 -10 4 2 13 11 8 14 18 8 32 -10 27 -11 43 -1 27 5
-7 8 10 8 42 -1 30 -4 52 -8 49 -5 -2 -8 1 -8 6 0 6 5 11 10 11 7 0 7 6 1 19
-6 10 -7 21 -4 25 3 3 1 6 -7 6 -10 0 -10 3 0 15 10 12 10 15 0 15 -10 0 -10
3 0 15 10 12 10 15 0 15 -8 0 -11 3 -8 6 4 3 2 19 -2 35 -5 16 -6 29 -2 29 12
0 6 224 -6 247 -8 14 -9 24 -2 28 7 4 7 13 0 26 -6 10 -7 19 -2 19 4 0 8 9 8
20 0 11 -4 20 -8 20 -5 0 -4 9 2 20 6 11 7 20 2 20 -4 0 -8 9 -9 20 -1 13 3
18 10 14 7 -3 4 1 -6 9 -10 8 -13 17 -8 18 7 3 6 14 -4 32 -7 15 -10 27 -4 27
5 0 9 5 9 11 0 5 -6 7 -12 3 -9 -5 -9 -2 1 9 9 11 10 17 2 17 -8 0 -11 24 -10
73 1 39 -3 85 -10 101 -6 16 -10 35 -7 42 3 7 -2 18 -9 24 -12 10 -12 17 -3
34 6 11 10 23 9 26 -2 3 -7 12 -12 21 -5 10 -4 20 3 27 8 8 8 12 2 12 -10 0
-14 13 -15 53 0 9 -4 17 -9 17 -4 0 -7 22 -7 49 1 27 -1 47 -5 44 -5 -2 -8 1
-8 6 0 6 5 11 11 11 8 0 8 4 -1 15 -6 8 -9 18 -6 23 3 6 -1 15 -9 22 -7 6 -11
18 -8 26 3 8 1 14 -4 14 -5 0 -8 14 -7 30 1 17 -3 30 -9 30 -7 0 -5 5 3 10 13
9 13 10 0 10 -13 0 -13 1 0 10 11 7 11 10 2 10 -7 0 -10 5 -7 10 4 6 2 17 -4
24 -6 7 -12 25 -13 40 -1 14 -6 26 -11 26 -4 0 -4 8 2 17 7 13 5 21 -7 30 -13
9 -13 12 -3 13 11 0 11 3 1 15 -17 20 -31 85 -18 85 7 0 6 5 -1 13 -6 8 -8 17
-4 20 3 4 1 7 -5 7 -7 0 -12 5 -12 11 0 5 6 7 13 4 6 -4 4 0 -7 9 -10 8 -16
22 -13 31 4 8 1 15 -5 15 -6 0 -5 6 3 17 12 14 12 16 0 9 -9 -6 -12 -5 -9 5 3
8 -2 20 -9 28 -8 8 -12 22 -10 32 3 11 1 19 -5 19 -5 0 -6 5 -3 10 3 6 0 10
-7 10 -9 0 -9 3 2 10 8 5 10 10 4 10 -6 0 -11 7 -12 15 -1 8 -3 22 -4 30 -1 8
-6 15 -11 15 -5 0 -7 11 -5 25 3 13 1 22 -3 19 -5 -3 -9 0 -9 5 0 6 5 11 12
11 6 0 4 8 -6 19 -10 11 -19 31 -20 45 0 14 -5 26 -9 26 -5 0 -5 5 -2 11 4 5
0 18 -7 27 -21 25 -33 46 -21 39 5 -3 10 0 10 8 0 8 -5 11 -10 8 -6 -4 -8 0
-4 9 3 9 0 21 -6 27 -6 6 -8 11 -3 11 4 0 1 7 -8 15 -8 9 -13 22 -10 29 3 8 1
17 -5 20 -6 4 -8 13 -5 20 3 7 -2 19 -10 26 -9 7 -13 16 -10 21 3 5 0 9 -7 9
-8 0 -9 3 0 14 9 10 8 16 -4 26 -8 7 -12 16 -10 21 3 4 -3 12 -12 18 -12 7
-13 10 -4 11 11 0 11 3 1 15 -7 8 -9 15 -4 15 5 0 4 4 -2 8 -11 8 -50 103 -46
115 1 4 -1 7 -5 7 -5 0 -9 12 -9 26 -1 14 -9 33 -17 42 -8 9 -17 28 -19 42 -1
14 -9 31 -16 38 -7 8 -10 18 -7 23 4 5 1 9 -5 9 -6 0 -9 4 -5 9 3 5 0 15 -7
23 -7 7 -14 18 -15 23 -5 32 -10 41 -25 52 -9 7 -15 21 -13 30 1 10 -8 38 -21
62 -13 24 -21 48 -18 53 4 7 -8 12 -27 10 -3 -1 -3 12 -1 29 2 16 0 29 -6 29
-11 0 -28 38 -24 53 1 4 -3 7 -9 7 -5 0 -7 5 -4 10 3 6 1 10 -4 10 -6 0 -11 7
-11 16 0 9 -8 24 -17 33 -10 9 -19 21 -20 26 -5 32 -10 41 -27 51 -13 8 -15
13 -7 18 9 6 7 12 -6 24 -18 17 -25 34 -26 60 0 6 -4 12 -9 12 -4 0 -8 7 -8
15 0 7 -8 18 -17 24 -10 5 -17 11 -16 13 6 8 -10 48 -19 48 -5 0 -6 5 -3 10 3
6 1 10 -5 10 -6 0 -8 5 -5 10 3 6 1 10 -4 10 -6 0 -11 7 -11 15 0 7 -8 19 -17
24 -10 6 -15 11 -10 11 4 0 0 14 -8 30 -9 17 -20 28 -24 25 -5 -3 -7 4 -4 15
3 12 0 20 -6 20 -7 0 -9 5 -6 10 3 6 2 10 -3 10 -5 0 -17 18 -27 39 -10 22
-28 50 -41 62 -13 12 -20 27 -17 37 4 10 2 13 -5 8 -7 -4 -12 -3 -12 2 0 5
-11 26 -25 46 -13 20 -22 36 -18 36 3 0 -4 8 -15 19 -12 10 -22 28 -22 40 0
12 -4 19 -10 16 -5 -3 -10 -1 -10 4 0 21 -11 39 -52 82 -9 9 -14 20 -10 23 3
3 0 6 -6 6 -7 0 -12 6 -12 14 0 7 -10 24 -23 37 -13 13 -32 39 -42 57 -11 17
-22 32 -26 32 -3 0 -14 18 -24 40 -10 21 -22 38 -28 37 -6 -1 -12 4 -13 11 -1
6 -3 15 -4 20 -1 4 -2 11 -1 15 1 5 -3 6 -9 2 -5 -3 -10 -2 -10 3 0 5 -19 29
-41 52 -23 24 -36 39 -29 35 8 -5 1 8 -14 27 -15 20 -34 39 -42 42 -8 3 -12
10 -9 16 3 5 1 10 -5 10 -6 0 -8 5 -5 10 3 6 1 10 -5 10 -6 0 -15 11 -22 25
-6 13 -15 22 -19 19 -5 -3 -9 2 -9 11 0 8 -7 18 -15 21 -8 4 -13 10 -10 14 3
5 -4 11 -15 15 -11 4 -18 11 -15 16 4 5 -2 9 -11 9 -10 0 -15 3 -11 6 3 3 -7
20 -23 37 -55 61 -70 80 -70 89 0 4 -7 8 -16 8 -8 0 -12 5 -9 10 3 6 -1 13 -9
16 -9 3 -16 12 -16 20 0 8 -7 14 -15 14 -9 0 -12 6 -8 18 3 9 3 14 -2 10 -4
-4 -21 9 -36 29 -16 20 -29 33 -29 29 0 -3 -9 2 -19 11 -11 9 -18 20 -15 24 2
4 -5 10 -16 14 -11 3 -20 12 -20 20 0 14 -50 51 -63 47 -5 -1 -6 1 -3 6 3 5
-5 18 -17 29 -12 11 -29 29 -38 39 -9 10 -31 32 -48 47 -17 16 -31 33 -31 38
0 6 -4 8 -9 4 -5 -3 -13 4 -16 16 -4 11 -9 19 -11 16 -7 -6 -101 87 -96 96 2
4 -4 7 -13 7 -9 0 -13 5 -10 10 3 6 -1 10 -10 10 -9 0 -13 5 -10 10 3 6 -1 10
-9 10 -9 0 -16 5 -16 10 0 6 -6 10 -12 10 -7 0 -22 13 -33 30 -13 20 -22 25
-27 17 -5 -8 -8 -7 -8 5 0 9 -9 20 -20 23 -11 3 -20 11 -20 17 0 6 -3 9 -6 6
-6 -7 -74 61 -74 75 0 4 -4 5 -10 2 -5 -3 -10 -1 -10 5 0 6 -4 8 -10 5 -5 -3
-10 1 -10 10 0 9 -4 13 -10 10 -5 -3 -10 2 -10 11 0 10 -3 14 -6 11 -4 -3 -20
8 -35 24 -16 17 -29 27 -29 23 0 -5 -7 0 -15 10 -8 11 -15 16 -15 11 0 -5 -8
0 -19 11 -30 31 -60 54 -71 54 -6 0 -10 5 -10 10 0 6 -7 10 -15 10 -8 0 -15 5
-15 10 0 6 -6 10 -14 10 -8 0 -16 7 -20 15 -3 8 -12 15 -21 15 -8 0 -15 7 -15
15 0 8 -7 15 -15 15 -8 0 -15 5 -15 11 0 6 -7 8 -16 5 -8 -3 -12 -2 -9 4 3 6
1 10 -4 10 -6 0 -23 13 -37 29 -16 19 -32 27 -42 24 -10 -4 -13 -2 -8 5 4 7 3
12 -3 12 -5 0 -23 12 -40 26 -17 14 -31 23 -31 20 0 -3 -9 3 -20 14 -11 11
-27 20 -37 20 -9 0 -13 3 -10 7 8 7 -73 64 -83 58 -4 -2 -13 5 -20 16 -8 10
-19 19 -25 19 -6 0 -21 9 -33 20 -12 12 -22 18 -22 15 0 -3 -9 -1 -20 5 -11 6
-18 15 -15 21 4 5 3 9 -2 8 -4 -1 -11 0 -15 1 -5 1 -12 3 -16 4 -5 0 -16 9
-26 19 -10 9 -21 15 -26 12 -4 -3 -11 2 -14 11 -3 8 -10 12 -16 9 -5 -3 -10
-1 -10 4 0 6 -5 11 -11 11 -6 0 -17 6 -24 13 -35 30 -45 37 -59 37 -8 0 -18 5
-21 10 -4 6 -11 7 -17 4 -6 -4 -8 -2 -5 3 4 6 -1 17 -10 24 -10 8 -14 9 -10 2
5 -8 1 -11 -12 -10 -12 1 -17 6 -13 16 3 9 1 12 -6 7 -7 -4 -12 -3 -12 2 0 6
-11 13 -25 16 -14 4 -23 11 -20 16 3 6 1 11 -4 11 -20 3 -26 5 -51 19 -14 8
-29 14 -33 15 -4 0 -12 6 -16 14 -5 7 -14 10 -20 7 -6 -4 -11 -2 -11 3 0 6 -9
11 -20 11 -11 0 -20 5 -20 10 0 6 -7 10 -15 10 -8 0 -15 5 -15 11 0 5 -5 7
-12 3 -6 -4 -17 1 -25 11 -7 11 -13 16 -13 12 0 -4 -33 10 -72 30 -40 21 -77
38 -81 38 -4 0 -12 6 -16 14 -5 7 -13 11 -19 7 -6 -3 -14 -1 -17 5 -4 5 -14 8
-22 5 -8 -3 -12 -2 -9 3 5 8 -43 33 -73 38 -8 1 -17 7 -21 13 -4 6 -17 12 -28
13 -12 1 -22 5 -22 9 0 4 -6 8 -14 8 -8 0 -17 6 -19 13 -4 8 -6 8 -6 -2 -1
-11 -5 -10 -17 5 -8 10 -13 13 -9 7 4 -9 1 -11 -9 -7 -9 3 -16 10 -16 15 0 5
-3 9 -7 8 -16 -2 -53 14 -53 23 0 5 -4 6 -10 3 -5 -3 -10 -2 -10 3 0 5 -6 9
-12 10 -7 0 -20 3 -28 5 -49 15 -59 20 -56 26 2 3 -9 7 -26 7 -17 1 -33 6 -37
13 -4 6 -19 12 -34 13 -15 1 -27 7 -27 12 0 5 -3 6 -7 3 -3 -4 -15 1 -26 10
-15 13 -19 14 -13 3 4 -8 0 -6 -8 4 -12 15 -16 16 -16 5 0 -12 -2 -12 -10 1
-5 8 -10 11 -10 5 0 -5 -4 -4 -9 4 -5 8 -23 14 -40 15 -17 0 -31 4 -31 9 0 4
-8 7 -17 7 -9 0 -25 7 -35 17 -10 9 -18 11 -18 5 0 -5 -9 -8 -20 -5 -11 3 -20
10 -20 15 0 5 -4 7 -9 3 -5 -3 -15 1 -23 8 -7 8 -19 12 -26 9 -7 -2 -20 2 -29
10 -14 11 -16 11 -8 -1 9 -15 -54 16 -66 33 -4 4 -9 2 -12 -5 -4 -10 -6 -10
-6 -1 -1 6 -6 12 -12 12 -5 0 -7 -4 -4 -10 3 -6 -1 -7 -9 -4 -9 3 -16 10 -16
16 0 5 -4 6 -10 3 -5 -3 -10 -1 -10 6 0 6 -8 9 -20 6 -11 -3 -20 0 -20 6 0 7
-5 5 -10 -3 -8 -12 -10 -12 -10 -1 0 8 -3 11 -7 8 -3 -4 -13 -1 -21 6 -13 10
-14 9 -7 -3 6 -11 3 -10 -12 3 -11 9 -23 14 -26 10 -4 -3 -7 -1 -7 7 0 10 -3
10 -15 0 -12 -10 -16 -9 -21 3 -3 9 -13 13 -25 10 -10 -3 -19 -1 -19 4 0 10
-8 12 -55 15 -14 1 -25 7 -25 13 0 5 -5 3 -10 -5 -6 -10 -10 -11 -10 -2 0 6
-9 12 -20 12 -11 0 -20 4 -20 9 0 5 -11 8 -25 7 -13 -2 -22 1 -19 5 3 5 0 9
-5 9 -6 0 -11 -4 -11 -8 0 -5 -13 -7 -30 -4 -16 2 -30 9 -30 14 0 5 -4 6 -10
3 -5 -3 -10 -1 -10 5 0 7 -7 10 -15 6 -8 -3 -15 0 -15 6 0 6 -6 5 -17 -3 -15
-12 -16 -12 -8 1 8 13 7 13 -8 1 -9 -7 -17 -9 -17 -4 0 5 -6 10 -12 11 -23 2
-43 8 -65 20 -15 8 -23 9 -23 2 0 -5 -5 -10 -11 -10 -5 0 -7 5 -3 11 5 8 2 9
-12 1 -14 -8 -23 -7 -36 5 -10 9 -18 11 -18 5 0 -11 -60 6 -71 22 -4 4 -10 3
-14 -4 -5 -9 -9 -9 -14 -1 -4 6 -19 12 -34 13 -15 1 -27 5 -27 9 0 4 -8 6 -17
5 -10 -2 -21 2 -25 8 -5 7 -8 7 -8 -3 0 -11 -5 -10 -24 3 -16 10 -27 12 -31 5
-5 -7 -11 -6 -21 2 -11 9 -14 8 -14 -2 0 -11 -2 -11 -10 1 -8 12 -10 12 -10 1
0 -11 -3 -11 -15 -1 -12 10 -15 10 -15 -1 0 -12 -2 -12 -9 0 -6 9 -10 10 -16
2 -5 -9 -11 -9 -23 1 -13 11 -14 11 -7 -2 7 -11 2 -10 -19 4 -16 10 -25 13
-22 7 4 -6 2 -11 -3 -11 -6 0 -11 4 -11 8 0 4 -10 9 -22 10 -37 5 -63 9 -63
11 0 7 -74 6 -98 0 -16 -5 -25 -4 -22 2 4 5 1 9 -4 9 -6 0 -11 -4 -11 -9 0
-10 -50 -2 -67 12 -9 6 -13 5 -13 -4 0 -11 -2 -11 -10 1 -5 8 -10 12 -10 8 0
-4 -11 -3 -25 2 -18 7 -25 6 -25 -3 0 -8 -4 -7 -10 3 -5 8 -12 11 -16 8 -4 -4
-15 -3 -25 3 -11 5 -19 6 -19 1 0 -4 -9 -8 -20 -8 -11 0 -20 5 -20 11 0 5 -5
3 -10 -5 -7 -11 -10 -11 -10 -2 0 10 -5 10 -20 2 -11 -6 -20 -7 -20 -2 0 5 -7
9 -15 9 -8 0 -12 -4 -9 -9 3 -4 0 -8 -5 -8 -6 0 -11 5 -11 10 0 7 -6 7 -20 0
-15 -8 -20 -8 -20 1 0 8 -5 7 -17 -2 -14 -12 -15 -12 -9 0 7 10 3 12 -14 6
-12 -4 -20 -3 -17 1 5 8 -83 10 -199 3 -27 -1 -55 1 -62 5 -7 4 -12 4 -12 -1
0 -4 -4 -2 -9 6 -8 12 -12 12 -25 2 -12 -11 -16 -11 -16 -1 0 9 -4 9 -17 -1
-11 -10 -14 -10 -9 -1 9 15 6 15 -18 -3z"/>
</g>
</svg>
